<svg width="500" height="500" viewBox="0 0 500 500" fill="none" xmlns="http://www.w3.org/2000/svg">
<path d="M40 20.1222C40 9.00902 31.0457 0 20 0C8.9543 0 0 9.00902 0 20.1222C0 30.1657 7.31367 38.4904 16.875 40V25.9388H11.7969V20.1222H16.875V15.689C16.875 10.6459 19.8609 7.86024 24.4293 7.86024C26.6168 7.86024 28.9062 8.25326 28.9062 8.25326V13.2052H26.3844C23.9 13.2052 23.125 14.7564 23.125 16.3493V20.1222H28.6719L27.7852 25.9388H23.125V40C32.6863 38.4904 40 30.1657 40 20.1222Z" fill="black"/>
<path d="M70.0117 3.60227C75.3586 3.60227 75.9918 3.62571 78.0946 3.71948C80.0489 3.80543 81.1042 4.13362 81.8077 4.40711C82.7379 4.76656 83.4102 5.20414 84.1059 5.89959C84.8095 6.60285 85.2394 7.26704 85.599 8.19691C85.8726 8.90018 86.2009 9.96288 86.2869 11.9086C86.3807 14.0184 86.4041 14.6513 86.4041 19.9883C86.4041 25.3331 86.3807 25.966 86.2869 28.068C86.2009 30.0215 85.8726 31.0764 85.599 31.7796C85.2394 32.7095 84.8016 33.3815 84.1059 34.077C83.4024 34.7802 82.7379 35.21 81.8077 35.5695C81.1042 35.8429 80.041 36.1711 78.0946 36.2571C75.984 36.3509 75.3508 36.3743 70.0117 36.3743C64.6648 36.3743 64.0317 36.3509 61.9289 36.2571C59.9746 36.1711 58.9193 35.8429 58.2158 35.5695C57.2855 35.21 56.6132 34.7724 55.9175 34.077C55.214 33.3737 54.7841 32.7095 54.4245 31.7796C54.1509 31.0764 53.8226 30.0137 53.7366 28.068C53.6428 25.9582 53.6193 25.3253 53.6193 19.9883C53.6193 14.6435 53.6428 14.0105 53.7366 11.9086C53.8226 9.95507 54.1509 8.90018 54.4245 8.19691C54.7841 7.26704 55.2218 6.59504 55.9175 5.89959C56.6211 5.19633 57.2855 4.76656 58.2158 4.40711C58.9193 4.13362 59.9824 3.80543 61.9289 3.71948C64.0317 3.62571 64.6648 3.60227 70.0117 3.60227ZM70.0117 0C64.5789 0 63.8988 0.0234421 61.7647 0.11721C59.6385 0.210979 58.1767 0.554796 56.9103 1.04708C55.5892 1.56281 54.4714 2.24263 53.3613 3.36003C52.2435 4.46962 51.5634 5.58703 51.0475 6.89979C50.555 8.17347 50.2111 9.62688 50.1173 11.7523C50.0235 13.8933 50 14.5732 50 20.0039C50 25.4347 50.0235 26.1145 50.1173 28.2477C50.2111 30.3731 50.555 31.8343 51.0475 33.1002C51.5634 34.4208 52.2435 35.5382 53.3613 36.6478C54.4714 37.7574 55.5892 38.445 56.9025 38.9529C58.1767 39.4452 59.6306 39.789 61.7569 39.8828C63.891 39.9766 64.571 40 70.0039 40C75.4368 40 76.1169 39.9766 78.2509 39.8828C80.3772 39.789 81.839 39.4452 83.1053 38.9529C84.4186 38.445 85.5364 37.7574 86.6465 36.6478C87.7565 35.5382 88.4444 34.4208 88.9525 33.108C89.445 31.8343 89.7889 30.3809 89.8827 28.2555C89.9765 26.1223 90 25.4425 90 20.0117C90 14.581 89.9765 13.9012 89.8827 11.7679C89.7889 9.64251 89.445 8.18129 88.9525 6.91541C88.46 5.58703 87.7799 4.46962 86.6621 3.36003C85.5521 2.25044 84.4342 1.56281 83.121 1.05489C81.8468 0.56261 80.3928 0.218793 78.2666 0.125024C76.1247 0.0234421 75.4446 0 70.0117 0Z" fill="black"/>
<path d="M70.0099 9.72656C64.3347 9.72656 59.7305 14.329 59.7305 20.002C59.7305 25.675 64.3347 30.2775 70.0099 30.2775C75.6851 30.2775 80.2894 25.675 80.2894 20.002C80.2894 14.329 75.6851 9.72656 70.0099 9.72656ZM70.0099 26.6674C66.3281 26.6674 63.342 23.6824 63.342 20.002C63.342 16.3216 66.3281 13.3366 70.0099 13.3366C73.6918 13.3366 76.6779 16.3216 76.6779 20.002C76.6779 23.6824 73.6918 26.6674 70.0099 26.6674Z" fill="black"/>
<path d="M83.0966 9.32274C83.0966 10.6511 82.0178 11.7216 80.6967 11.7216C79.3678 11.7216 78.2969 10.6433 78.2969 9.32274C78.2969 7.99435 79.3756 6.92383 80.6967 6.92383C82.0178 6.92383 83.0966 8.00217 83.0966 9.32274Z" fill="black"/>
<g clip-path="url(#clip0_173_540)">
<path fill-rule="evenodd" clip-rule="evenodd" d="M120.001 0.833252C115.253 0.835715 110.661 2.51735 107.045 5.57746C103.43 8.63756 101.027 12.8766 100.266 17.5366C99.5056 22.1966 100.437 26.9736 102.893 31.0135C105.35 35.0535 109.172 38.0929 113.675 39.5882C114.669 39.7726 115.043 39.1568 115.043 38.6332C115.043 38.1097 115.023 36.5916 115.016 34.9319C109.453 36.1339 108.277 32.5841 108.277 32.5841C107.369 30.279 106.058 29.6731 106.058 29.6731C104.243 28.4415 106.194 28.4646 106.194 28.4646C108.204 28.6062 109.261 30.5161 109.261 30.5161C111.042 33.5555 113.94 32.6763 115.079 32.1626C115.258 30.875 115.778 29.9991 116.351 29.5018C111.907 29.0013 107.237 27.2956 107.237 19.6756C107.209 17.6994 107.947 15.7883 109.297 14.3377C109.092 13.8372 108.406 11.8153 109.492 9.06897C109.492 9.06897 111.171 8.53551 114.993 11.1073C118.271 10.216 121.73 10.216 125.008 11.1073C128.827 8.53551 130.502 9.06897 130.502 9.06897C131.592 11.8087 130.907 13.8306 130.701 14.3377C132.055 15.7886 132.794 17.703 132.764 19.6822C132.764 27.3186 128.085 29.0013 123.634 29.492C124.349 30.111 124.988 31.3196 124.988 33.1768C124.988 35.8375 124.965 37.9779 124.965 38.6332C124.965 39.1634 125.326 39.7825 126.34 39.5882C130.844 38.0927 134.666 35.0528 137.122 31.0121C139.579 26.9715 140.509 22.1938 139.748 17.5333C138.986 12.8729 136.582 8.63384 132.966 5.57426C129.349 2.51468 124.756 0.834154 120.007 0.833252H120.001Z" fill="black"/>
<path d="M107.573 29.3866C107.53 29.4853 107.371 29.515 107.241 29.4458C107.112 29.3767 107.016 29.2482 107.063 29.1462C107.109 29.0441 107.265 29.0177 107.394 29.0869C107.523 29.156 107.622 29.2878 107.573 29.3866Z" fill="black"/>
<path d="M108.387 30.2856C108.318 30.3199 108.24 30.3295 108.165 30.3127C108.09 30.2959 108.023 30.2537 107.976 30.1934C107.847 30.0551 107.82 29.8641 107.92 29.7784C108.019 29.6928 108.198 29.7323 108.327 29.8707C108.456 30.009 108.486 30.1999 108.387 30.2856Z" fill="black"/>
<path d="M109.173 31.4284C109.051 31.514 108.842 31.4284 108.726 31.2572C108.694 31.2264 108.669 31.1896 108.651 31.1489C108.634 31.1081 108.625 31.0643 108.625 31.0201C108.625 30.9758 108.634 30.932 108.651 30.8912C108.669 30.8505 108.694 30.8137 108.726 30.783C108.849 30.7006 109.058 30.783 109.173 30.9509C109.289 31.1188 109.293 31.3428 109.173 31.4284V31.4284Z" fill="black"/>
<path d="M110.243 32.5347C110.134 32.6566 109.912 32.6237 109.73 32.459C109.548 32.2944 109.505 32.0704 109.614 31.9519C109.723 31.8333 109.945 31.8663 110.134 32.0276C110.323 32.189 110.359 32.4162 110.243 32.5347V32.5347Z" fill="black"/>
<path d="M111.745 33.1802C111.695 33.3349 111.47 33.4041 111.245 33.3382C111.02 33.2724 110.871 33.0879 110.914 32.9299C110.957 32.7718 111.185 32.6994 111.414 32.7718C111.642 32.8443 111.788 33.0188 111.745 33.1802Z" fill="black"/>
<path d="M113.381 33.292C113.381 33.4534 113.196 33.5917 112.957 33.595C112.719 33.5983 112.523 33.4666 112.523 33.3052C112.523 33.1439 112.709 33.0056 112.947 33.0023C113.186 32.999 113.381 33.1274 113.381 33.292Z" fill="black"/>
<path d="M114.901 33.0386C114.931 33.2 114.766 33.3679 114.527 33.4074C114.289 33.4469 114.08 33.3514 114.05 33.1934C114.02 33.0353 114.193 32.8641 114.424 32.8213C114.656 32.7785 114.872 32.8773 114.901 33.0386Z" fill="black"/>
</g>
<path fill-rule="evenodd" clip-rule="evenodd" d="M170 0C158.959 0 150 8.95879 150 20C150 31.0413 158.959 40 170 40C181.02 40 190 31.0413 190 20C190 8.95879 181.02 0 170 0ZM183.21 9.21909C185.597 12.1258 187.028 15.8351 187.072 19.8481C186.508 19.7397 180.868 18.59 175.184 19.3059C175.054 19.0239 174.946 18.7201 174.816 18.4165C174.469 17.5923 174.078 16.7462 173.688 15.9436C179.978 13.384 182.842 9.69631 183.21 9.21909ZM170 2.95011C174.338 2.95011 178.308 4.57701 181.323 7.24513C181.019 7.67896 178.438 11.128 172.364 13.4056C169.566 8.26464 166.464 4.0564 165.987 3.40564C167.267 3.10195 168.612 2.95011 170 2.95011ZM162.733 4.55531C163.189 5.16269 166.226 9.39263 169.067 14.4251C161.085 16.551 154.035 16.5076 153.275 16.5076C154.382 11.2148 157.961 6.81127 162.733 4.55531ZM152.907 20.0218C152.907 19.8481 152.907 19.6746 152.907 19.5011C153.644 19.5227 161.931 19.6312 170.456 17.0716C170.955 18.026 171.41 19.0021 171.844 19.9783C171.627 20.0434 171.388 20.1085 171.171 20.1735C162.364 23.0151 157.679 30.7809 157.289 31.4316C154.577 28.4165 152.907 24.4035 152.907 20.0218ZM170 37.0933C166.052 37.0933 162.408 35.7484 159.523 33.4924C159.826 32.8634 163.297 26.1823 172.928 22.82C172.972 22.7983 172.994 22.7983 173.037 22.7766C175.445 29.0021 176.421 34.2299 176.681 35.7266C174.62 36.616 172.364 37.0933 170 37.0933ZM179.523 34.1649C179.349 33.1236 178.438 28.1345 176.204 21.9956C181.562 21.1496 186.247 22.538 186.833 22.7332C186.096 27.4837 183.362 31.5835 179.523 34.1649Z" fill="black"/>
<defs>
<clipPath id="clip0_173_540">
<rect width="40" height="40" fill="white" transform="translate(100)"/>
</clipPath>
</defs>
</svg>
