<svg width="270" height="331" viewBox="0 0 270 331" fill="none" xmlns="http://www.w3.org/2000/svg">
<g clip-path="url(#clip0_11_15)">
<path fill-rule="evenodd" clip-rule="evenodd" d="M106.393 18.5C108.326 18.5 109.893 16.933 109.893 15C109.893 13.067 108.326 11.5 106.393 11.5C104.46 11.5 102.893 13.067 102.893 15C102.893 16.933 104.46 18.5 106.393 18.5ZM106.393 20C109.155 20 111.393 17.7614 111.393 15C111.393 12.2386 109.155 10 106.393 10C103.632 10 101.393 12.2386 101.393 15C101.393 17.7614 103.632 20 106.393 20Z" fill="black"/>
<path fill-rule="evenodd" clip-rule="evenodd" d="M103.393 23.75C101.046 23.75 99.1434 25.6528 99.1434 28V29C99.1434 29.4142 98.8077 29.75 98.3934 29.75C97.9792 29.75 97.6434 29.4142 97.6434 29V28C97.6434 24.8244 100.218 22.25 103.393 22.25H109.393C112.569 22.25 115.143 24.8244 115.143 28V29C115.143 29.4142 114.808 29.75 114.393 29.75C113.979 29.75 113.643 29.4142 113.643 29V28C113.643 25.6528 111.741 23.75 109.393 23.75H103.393Z" fill="black"/>
<path fill-rule="evenodd" clip-rule="evenodd" d="M51.8954 15L56.294 10.7847C57.3577 9.7653 59.0358 9.7653 60.0995 10.7847L64.4981 15H67.0437C67.6523 15 68.1197 15.539 68.0337 16.1414L66.5647 26.4243C66.3536 27.9022 65.0878 29 63.5948 29H52.7986C51.3057 29 50.0399 27.9022 49.8288 26.4243L48.3598 16.1414C48.2737 15.539 48.7412 15 49.3497 15H51.8954ZM57.3318 11.8677C57.8153 11.4043 58.5781 11.4043 59.0616 11.8677L62.3301 15H54.0633L57.3318 11.8677ZM49.9262 16.5L51.3137 26.2121C51.4193 26.9511 52.0521 27.5 52.7986 27.5H63.5948C64.3413 27.5 64.9742 26.9511 65.0798 26.2121L66.4672 16.5H49.9262Z" fill="black"/>
<path fill-rule="evenodd" clip-rule="evenodd" d="M54.1967 19.25C54.6109 19.25 54.9467 19.5858 54.9467 20V24C54.9467 24.4142 54.6109 24.75 54.1967 24.75C53.7825 24.75 53.4467 24.4142 53.4467 24V20C53.4467 19.5858 53.7825 19.25 54.1967 19.25Z" fill="black"/>
<path fill-rule="evenodd" clip-rule="evenodd" d="M58.1967 19.25C58.6109 19.25 58.9467 19.5858 58.9467 20V24C58.9467 24.4142 58.6109 24.75 58.1967 24.75C57.7825 24.75 57.4467 24.4142 57.4467 24V20C57.4467 19.5858 57.7825 19.25 58.1967 19.25Z" fill="black"/>
<path fill-rule="evenodd" clip-rule="evenodd" d="M62.1967 19.25C62.6109 19.25 62.9467 19.5858 62.9467 20V24C62.9467 24.4142 62.6109 24.75 62.1967 24.75C61.7825 24.75 61.4467 24.4142 61.4467 24V20C61.4467 19.5858 61.7825 19.25 62.1967 19.25Z" fill="black"/>
<path fill-rule="evenodd" clip-rule="evenodd" d="M15.8723 24.8116C17.1996 23.2436 18 21.2153 18 19C18 14.0294 13.9706 10 9 10C4.02944 10 0 14.0294 0 19C0 23.9706 4.02944 28 9 28C11.2153 28 13.2436 27.1996 14.8116 25.8723L17.4697 28.5303C17.7626 28.8232 18.2374 28.8232 18.5303 28.5303C18.8232 28.2374 18.8232 27.7626 18.5303 27.4697L15.8723 24.8116ZM16.5 19C16.5 23.1421 13.1421 26.5 9 26.5C4.85786 26.5 1.5 23.1421 1.5 19C1.5 14.8579 4.85786 11.5 9 11.5C13.1421 11.5 16.5 14.8579 16.5 19Z" fill="black"/>
<g filter="url(#filter0_b_11_15)">
<ellipse cx="68.8197" cy="7" rx="6.88525" ry="7" fill="#EA0025"/>
</g>
<path d="M66.3789 10.27C67.2255 9.59 67.8889 9.03333 68.3689 8.6C68.8489 8.16 69.2522 7.70333 69.5789 7.23C69.9122 6.75 70.0789 6.28 70.0789 5.82C70.0789 5.38667 69.9722 5.04667 69.7589 4.8C69.5522 4.54667 69.2155 4.42 68.7489 4.42C68.2955 4.42 67.9422 4.56333 67.6889 4.85C67.4422 5.13 67.3089 5.50667 67.2889 5.98H66.4089C66.4355 5.23333 66.6622 4.65667 67.0889 4.25C67.5155 3.84333 68.0655 3.64 68.7389 3.64C69.4255 3.64 69.9689 3.83 70.3689 4.21C70.7755 4.59 70.9789 5.11333 70.9789 5.78C70.9789 6.33333 70.8122 6.87333 70.4789 7.4C70.1522 7.92 69.7789 8.38 69.3589 8.78C68.9389 9.17333 68.4022 9.63333 67.7489 10.16H71.1889V10.92H66.3789V10.27Z" fill="white"/>
<circle cx="17.5" cy="67.5" r="17.5" fill="black"/>
<g clip-path="url(#clip1_11_15)">
<path d="M19.5583 73.6457L19.5424 66.8986L15.5585 66.7645L15.0837 73.4999C14.721 73.5649 14.4504 73.8707 14.4289 74.2391L13.9702 78.3996C13.9136 78.923 14.229 79.3811 14.6517 79.3954L19.5906 79.5592C20.0158 79.5711 20.3537 79.1423 20.34 78.6092L20.1764 74.4423C20.1861 74.0639 19.9279 73.7311 19.5587 73.6457L19.5583 73.6457Z" fill="white"/>
<path d="M21.2753 59.9893L14.668 59.7572C14.4037 59.7501 14.1568 59.6257 13.9935 59.4183C13.6562 58.9631 13.1286 58.6881 12.5619 58.6721C11.5282 58.6385 10.6618 59.4484 10.6258 60.482L10.5471 62.819C10.5153 63.8521 11.324 64.7172 12.357 64.7551C12.9218 64.7753 13.4642 64.5376 13.8331 64.1092C14.0094 63.9127 14.2653 63.8052 14.5288 63.8165C14.6758 63.8214 14.8147 63.8845 14.9151 63.9918C15.0154 64.0991 15.069 64.242 15.064 64.389L15.0169 65.7883L20.1476 65.9611L20.1878 64.5494C20.1922 64.403 20.2552 64.2641 20.3619 64.1643C20.4686 64.0645 20.6115 64.011 20.7578 64.0165L24.771 64.1517L24.7777 63.736C24.8082 62.7758 24.4572 61.8416 23.8005 61.1391C23.1439 60.4367 22.2354 60.0236 21.2753 59.9895L21.2753 59.9893Z" fill="white"/>
</g>
<circle opacity="0.2" cx="14" cy="113" r="13" fill="white"/>
<path fill-rule="evenodd" clip-rule="evenodd" d="M11.3245 110.083L13.8903 107.624C14.5108 107.03 15.4897 107.03 16.1102 107.624L18.676 110.083H20.161C20.516 110.083 20.7887 110.398 20.7385 110.749L19.8816 116.748C19.7584 117.61 19.02 118.25 18.1491 118.25H11.8514C10.9805 118.25 10.2421 117.61 10.1189 116.748L9.26203 110.749C9.21183 110.398 9.48452 110.083 9.83951 110.083H11.3245ZM14.4957 108.256C14.7778 107.986 15.2227 107.986 15.5048 108.256L17.4114 110.083H12.5891L14.4957 108.256ZM10.1758 110.958L10.9851 116.624C11.0467 117.055 11.4159 117.375 11.8514 117.375H18.1491C18.5846 117.375 18.9538 117.055 19.0154 116.624L19.8247 110.958H10.1758Z" fill="white"/>
<path fill-rule="evenodd" clip-rule="evenodd" d="M12.6669 112.562C12.9085 112.562 13.1044 112.758 13.1044 113V115.333C13.1044 115.575 12.9085 115.771 12.6669 115.771C12.4253 115.771 12.2294 115.575 12.2294 115.333V113C12.2294 112.758 12.4253 112.562 12.6669 112.562Z" fill="white"/>
<path fill-rule="evenodd" clip-rule="evenodd" d="M15.0002 112.562C15.2419 112.562 15.4377 112.758 15.4377 113V115.333C15.4377 115.575 15.2419 115.771 15.0002 115.771C14.7586 115.771 14.5627 115.575 14.5627 115.333V113C14.5627 112.758 14.7586 112.562 15.0002 112.562Z" fill="white"/>
<path fill-rule="evenodd" clip-rule="evenodd" d="M17.3336 112.562C17.5752 112.562 17.7711 112.758 17.7711 113V115.333C17.7711 115.575 17.5752 115.771 17.3336 115.771C17.092 115.771 16.8961 115.575 16.8961 115.333V113C16.8961 112.758 17.092 112.562 17.3336 112.562Z" fill="white"/>
</g>
<defs>
<filter id="filter0_b_11_15" x="57.9344" y="-4" width="21.7705" height="22" filterUnits="userSpaceOnUse" color-interpolation-filters="sRGB">
<feFlood flood-opacity="0" result="BackgroundImageFix"/>
<feGaussianBlur in="BackgroundImage" stdDeviation="2"/>
<feComposite in2="SourceAlpha" operator="in" result="effect1_backgroundBlur_11_15"/>
<feBlend mode="normal" in="SourceGraphic" in2="effect1_backgroundBlur_11_15" result="shape"/>
</filter>
<clipPath id="clip0_11_15">
<rect width="270" height="331" fill="white"/>
</clipPath>
<clipPath id="clip1_11_15">
<rect width="22" height="22" fill="white" transform="translate(17.5236 52.4524) rotate(46.9289)"/>
</clipPath>
</defs>
</svg>
