<svg width="120" height="120" viewBox="0 0 120 120" fill="none" xmlns="http://www.w3.org/2000/svg">
<rect width="120" height="120" fill="white"/>
<path fill-rule="evenodd" clip-rule="evenodd" d="M17.8723 16.8116C19.1996 15.2436 20 13.2153 20 11C20 6.02944 15.9706 2 11 2C6.02944 2 2 6.02944 2 11C2 15.9706 6.02944 20 11 20C13.2153 20 15.2436 19.1996 16.8116 17.8723L19.4697 20.5303C19.7626 20.8232 20.2374 20.8232 20.5303 20.5303C20.8232 20.2374 20.8232 19.7626 20.5303 19.4697L17.8723 16.8116ZM18.5 11C18.5 15.1421 15.1421 18.5 11 18.5C6.85786 18.5 3.5 15.1421 3.5 11C3.5 6.85786 6.85786 3.5 11 3.5C15.1421 3.5 18.5 6.85786 18.5 11Z" fill="black"/>
<path fill-rule="evenodd" clip-rule="evenodd" d="M29.5456 6.97986L33.9442 2.76453C35.0079 1.74516 36.686 1.74516 37.7497 2.76453L42.1483 6.97986H44.6939C45.3025 6.97986 45.7699 7.51885 45.6839 8.12128L44.2149 18.4041C44.0038 19.8821 42.738 20.9799 41.245 20.9799H30.4488C28.9559 20.9799 27.6901 19.8821 27.479 18.4041L26.01 8.12128C25.9239 7.51885 26.3914 6.97986 26.9999 6.97986H29.5456ZM34.982 3.84752C35.4655 3.38416 36.2283 3.38416 36.7118 3.84751L39.9803 6.97986H31.7135L34.982 3.84752ZM27.5764 8.47986L28.9639 18.192C29.0695 18.931 29.7023 19.4799 30.4488 19.4799H41.245C41.9915 19.4799 42.6244 18.931 42.73 18.192L44.1174 8.47986H27.5764Z" fill="black"/>
<path fill-rule="evenodd" clip-rule="evenodd" d="M32 11.25C32.4142 11.25 32.75 11.5858 32.75 12V16C32.75 16.4142 32.4142 16.75 32 16.75C31.5858 16.75 31.25 16.4142 31.25 16V12C31.25 11.5858 31.5858 11.25 32 11.25Z" fill="black"/>
<path fill-rule="evenodd" clip-rule="evenodd" d="M36 11.25C36.4142 11.25 36.75 11.5858 36.75 12V16C36.75 16.4142 36.4142 16.75 36 16.75C35.5858 16.75 35.25 16.4142 35.25 16V12C35.25 11.5858 35.5858 11.25 36 11.25Z" fill="black"/>
<path fill-rule="evenodd" clip-rule="evenodd" d="M40 11.25C40.4142 11.25 40.75 11.5858 40.75 12V16C40.75 16.4142 40.4142 16.75 40 16.75C39.5858 16.75 39.25 16.4142 39.25 16V12C39.25 11.5858 39.5858 11.25 40 11.25Z" fill="black"/>
<path fill-rule="evenodd" clip-rule="evenodd" d="M60 10.5C61.933 10.5 63.5 8.933 63.5 7C63.5 5.067 61.933 3.5 60 3.5C58.067 3.5 56.5 5.067 56.5 7C56.5 8.933 58.067 10.5 60 10.5ZM60 12C62.7614 12 65 9.76142 65 7C65 4.23858 62.7614 2 60 2C57.2386 2 55 4.23858 55 7C55 9.76142 57.2386 12 60 12Z" fill="black"/>
<path fill-rule="evenodd" clip-rule="evenodd" d="M57 15.75C54.6528 15.75 52.75 17.6528 52.75 20V21C52.75 21.4142 52.4142 21.75 52 21.75C51.5858 21.75 51.25 21.4142 51.25 21V20C51.25 16.8244 53.8244 14.25 57 14.25H63C66.1756 14.25 68.75 16.8244 68.75 20V21C68.75 21.4142 68.4142 21.75 68 21.75C67.5858 21.75 67.25 21.4142 67.25 21V20C67.25 17.6528 65.3472 15.75 63 15.75H57Z" fill="black"/>
</svg>
